<svg width="468" height="595" viewBox="0 0 468 595" fill="none" xmlns="http://www.w3.org/2000/svg">
<path fill-rule="evenodd" clip-rule="evenodd" d="M222.548 8.0795L451.599 169.826L462.125 411.396L227.155 255.005L222.548 8.0795ZM9.33563 444.12L245.353 588.949L460.686 416.294L224.818 259.305L9.33563 444.12ZM241.442 592.085L241.364 592.147L245.637 594.852L467.137 417.253L467.384 417.243L467.377 417.061L467.637 416.853L467.36 416.677L467.322 415.803L467.894 415.236L467.279 414.827L456.497 167.391L456.385 167.396L456.504 167.283L219.614 0.000488281L218.021 1.52307L218.018 1.52064L0.0473618 192.824L0.86825 193.455L-0.00012207 193.459L1.11002 443.476L2.43185 443.47L1.07972 444.59L241.442 592.085ZM5.00676 194.998L6.09667 440.457L222.157 255.147L217.554 8.45411L5.00676 194.998Z" fill="#6874E7"/>
</svg>
