<svg width="650" height="704" viewBox="0 0 650 704" fill="none" xmlns="http://www.w3.org/2000/svg">
<path d="M212.698 131.307L211.97 128.915L211.766 128.977L211.575 129.073L212.698 131.307ZM81.0087 463.391L83.4861 463.055L83.4603 462.865L83.4056 462.68L81.0087 463.391ZM643.759 111.138C644.817 110.251 644.956 108.674 644.07 107.616L629.62 90.3688C628.733 89.3104 627.157 89.1713 626.098 90.058C625.04 90.9447 624.901 92.5214 625.787 93.5798L638.632 108.91L623.301 121.755C622.243 122.641 622.103 124.218 622.99 125.276C623.877 126.335 625.454 126.474 626.512 125.587L643.759 111.138ZM56.9218 683.041C55.9472 682.063 54.3643 682.061 53.3863 683.035L37.4486 698.917C36.4706 699.892 36.4678 701.475 37.4424 702.453C38.417 703.431 40 703.434 40.978 702.459L55.1448 688.342L69.2622 702.508C70.2368 703.487 71.8197 703.489 72.7977 702.515C73.7757 701.54 73.7785 699.957 72.8039 698.979L56.9218 683.041ZM642.373 106.731C640.692 106.583 639.019 106.436 637.353 106.291L636.92 111.272C638.583 111.417 640.255 111.563 641.934 111.712L642.373 106.731ZM627.451 105.44C624.18 105.162 620.939 104.892 617.728 104.627L617.318 109.61C620.525 109.874 623.762 110.145 627.028 110.422L627.451 105.44ZM607.851 103.826C604.528 103.561 601.237 103.302 597.978 103.051L597.593 108.036C600.847 108.287 604.134 108.545 607.453 108.81L607.851 103.826ZM588.298 102.317C584.937 102.067 581.611 101.824 578.32 101.589L577.963 106.576C581.249 106.811 584.57 107.053 587.926 107.303L588.298 102.317ZM568.512 100.902C565.211 100.676 561.946 100.458 558.716 100.247L558.391 105.237C561.615 105.447 564.875 105.665 568.17 105.891L568.512 100.902ZM548.792 99.6165C545.522 99.4142 542.289 99.2198 539.093 99.0333L538.801 104.025C541.992 104.211 545.219 104.405 548.484 104.607L548.792 99.6165ZM529.107 98.4694C525.807 98.2893 522.546 98.1179 519.326 97.9549L519.073 102.948C522.287 103.111 525.541 103.282 528.835 103.462L529.107 98.4694ZM509.43 97.4747C506.105 97.3205 502.825 97.1756 499.587 97.0398L499.377 102.035C502.607 102.171 505.881 102.315 509.198 102.469L509.43 97.4747ZM489.738 96.6498C486.398 96.5255 483.106 96.4113 479.861 96.3069L479.7 101.304C482.937 101.408 486.221 101.522 489.552 101.646L489.738 96.6498ZM470.019 96.0165C466.676 95.9269 463.383 95.8481 460.141 95.7799L460.036 100.779C463.269 100.847 466.551 100.925 469.885 101.015L470.019 96.0165ZM450.274 95.6023C446.939 95.5527 443.659 95.5147 440.432 95.4879L440.391 100.488C443.606 100.514 446.875 100.552 450.2 100.602L450.274 95.6023ZM430.515 95.4407C427.203 95.4369 423.951 95.4455 420.755 95.4661L420.787 100.466C423.97 100.445 427.21 100.437 430.509 100.441L430.515 95.4407ZM410.772 95.5718C407.427 95.6214 404.146 95.6848 400.928 95.7614L401.048 100.76C404.25 100.684 407.515 100.621 410.846 100.571L410.772 95.5718ZM391.096 96.0427C387.712 96.1563 384.401 96.2851 381.159 96.4287L381.38 101.424C384.604 101.281 387.897 101.153 391.264 101.04L391.096 96.0427ZM371.303 96.9217C367.957 97.1088 364.69 97.3122 361.498 97.5312L361.84 102.519C365.011 102.302 368.257 102.1 371.582 101.914L371.303 96.9217ZM351.618 98.2769C348.238 98.5561 344.946 98.8535 341.736 99.1681L342.223 104.144C345.408 103.832 348.675 103.537 352.03 103.26L351.618 98.2769ZM331.889 100.215C328.522 100.601 325.251 101.007 322.067 101.432L322.728 106.388C325.881 105.968 329.123 105.565 332.459 105.182L331.889 100.215ZM312.27 102.835C308.915 103.349 305.661 103.885 302.499 104.439L303.362 109.364C306.489 108.816 309.708 108.286 313.028 107.777L312.27 102.835ZM292.765 106.256C289.44 106.915 286.216 107.596 283.082 108.293L284.169 113.174C287.266 112.484 290.451 111.812 293.738 111.16L292.765 106.256ZM273.462 110.553C270.169 111.367 266.971 112.199 263.849 113.044L265.156 117.87C268.244 117.034 271.407 116.212 274.662 115.407L273.462 110.553ZM254.317 115.728C251.105 116.665 247.961 117.613 244.864 118.566L246.335 123.345C249.414 122.397 252.533 121.457 255.717 120.528L254.317 115.728ZM235.433 121.52C232.29 122.517 229.164 123.518 226.047 124.511L227.564 129.275C230.692 128.279 233.805 127.283 236.945 126.286L235.433 121.52ZM216.672 127.468C215.112 127.953 213.546 128.436 211.97 128.915L213.426 133.698C215.013 133.216 216.589 132.73 218.157 132.242L216.672 127.468ZM211.575 129.073C210.017 129.856 208.47 130.642 206.933 131.43L209.214 135.879C210.739 135.097 212.275 134.318 213.821 133.54L211.575 129.073ZM197.839 136.187C194.85 137.782 191.903 139.386 188.998 140.999L191.425 145.37C194.305 143.771 197.228 142.18 200.193 140.598L197.839 136.187ZM180.406 145.863C177.455 147.567 174.55 149.28 171.689 151.002L174.267 155.286C177.102 153.58 179.982 151.882 182.906 150.193L180.406 145.863ZM162.969 156.363C160.109 158.159 157.296 159.964 154.529 161.777L157.269 165.959C160.009 164.164 162.795 162.376 165.628 160.597L162.969 156.363ZM146.364 167.243C143.495 169.205 140.679 171.176 137.913 173.156L140.824 177.222C143.56 175.263 146.347 173.312 149.187 171.37L146.364 167.243ZM129.732 179.152C127.056 181.159 124.431 183.174 121.856 185.197L124.946 189.128C127.49 187.129 130.085 185.136 132.732 183.152L129.732 179.152ZM113.976 191.542C111.32 193.733 108.722 195.932 106.18 198.139L109.458 201.915C111.968 199.735 114.534 197.563 117.158 195.398L113.976 191.542ZM98.7215 204.782C96.2195 207.068 93.7761 209.362 91.3903 211.663L94.8609 215.262C97.2144 212.993 99.6253 210.729 102.095 208.472L98.7215 204.782ZM84.1247 218.868C81.7644 221.277 79.4653 223.691 77.2262 226.111L80.8962 229.507C83.1025 227.122 85.3686 224.742 87.6956 222.368L84.1247 218.868ZM70.4823 233.622C68.2223 236.217 66.0294 238.817 63.9021 241.421L67.7743 244.584C69.8681 242.021 72.0271 239.461 74.2528 236.906L70.4823 233.622ZM57.7157 249.244C55.6256 251.976 53.6058 254.712 51.6546 257.449L55.7262 260.351C57.6445 257.66 59.6309 254.97 61.6869 252.282L57.7157 249.244ZM45.9164 265.801C44.0574 268.611 42.2688 271.421 40.5489 274.231L44.8134 276.841C46.5025 274.082 48.2595 271.321 50.0862 268.561L45.9164 265.801ZM35.3568 283.078C33.7005 286.025 32.1177 288.97 30.6065 291.912L35.0539 294.197C36.5366 291.311 38.0898 288.42 39.7156 285.527L35.3568 283.078ZM26.1269 301.064C24.6877 304.157 23.3256 307.243 22.0383 310.322L26.6514 312.251C27.9132 309.233 29.2486 306.207 30.66 303.174L26.1269 301.064ZM18.33 319.718C17.1353 322.934 16.0203 326.14 14.9822 329.333L19.7373 330.879C20.7541 327.751 21.8464 324.611 23.017 321.459L18.33 319.718ZM12.0715 338.961C11.1439 342.277 10.2976 345.576 9.52925 348.857L14.3975 349.997C15.1497 346.785 15.9784 343.555 16.8866 340.308L12.0715 338.961ZM7.44708 358.684C6.80421 362.072 6.24291 365.437 5.75944 368.777L10.7079 369.494C11.181 366.225 11.7302 362.932 12.3594 359.616L7.44708 358.684ZM4.53518 378.754C4.18944 382.186 3.92448 385.587 3.73603 388.955L8.72822 389.234C8.91256 385.94 9.17175 382.613 9.51 379.255L4.53518 378.754ZM3.3951 399.023C3.35465 402.468 3.39307 405.873 3.50549 409.235L8.50269 409.068C8.39278 405.781 8.35519 402.451 8.39476 399.081L3.3951 399.023ZM4.07128 419.331C4.34115 422.756 4.68681 426.13 5.10267 429.447L10.0638 428.825C9.65749 425.583 9.31964 422.286 9.05584 418.938L4.07128 419.331ZM6.60293 439.505C7.18617 442.87 7.84075 446.169 8.56018 449.398L13.4405 448.31C12.7383 445.159 12.0991 441.938 11.5295 438.651L6.60293 439.505ZM11.0374 459.342C11.9539 462.662 12.9382 465.894 13.9822 469.032L18.7266 467.454C17.71 464.398 16.7508 461.249 15.8571 458.011L11.0374 459.342ZM17.4449 478.567C18.7368 481.837 20.0923 484.983 21.5004 487.998L26.0306 485.882C24.6663 482.961 23.3506 479.907 22.0952 476.73L17.4449 478.567ZM26.1237 497.098C27.8298 500.186 29.5893 503.097 31.3863 505.817L35.5581 503.061C33.8376 500.457 32.146 497.659 30.5003 494.68L26.1237 497.098ZM37.4239 514.076C39.7499 516.936 42.1144 519.484 44.4874 521.693L47.8942 518.034C45.7103 516.001 43.5018 513.624 41.3025 510.921L37.4239 514.076ZM53.007 528.122C56.5103 530.138 60.0467 531.376 63.4883 531.608L63.8254 526.62C61.3357 526.452 58.5351 525.535 55.5007 523.789L53.007 528.122ZM74.475 528.179C77.1332 526.035 79.3231 522.957 81.0286 519.026L76.4418 517.036C74.9709 520.426 73.2142 522.772 71.3363 524.287L74.475 528.179ZM84.0326 508.868C84.6152 505.822 85.0374 502.457 85.2868 498.764L80.2982 498.427C80.0604 501.948 79.6608 505.109 79.1216 507.929L84.0326 508.868ZM85.5417 488.736C85.5032 485.499 85.3581 482.062 85.0996 478.421L80.1122 478.775C80.3643 482.327 80.5048 485.665 80.5421 488.796L85.5417 488.736ZM84.1594 468.417C83.9579 466.67 83.7337 464.883 83.4861 463.055L78.5314 463.726C78.7747 465.522 78.9948 467.277 79.1923 468.99L84.1594 468.417ZM83.4056 462.68C82.892 460.948 82.3835 459.247 81.8801 457.578L77.0931 459.022C77.5941 460.683 78.1004 462.376 78.6118 464.101L83.4056 462.68ZM78.9208 447.941C77.9546 444.853 77.0084 441.889 76.0819 439.046L71.3279 440.595C72.248 443.418 73.1882 446.364 74.149 449.434L78.9208 447.941ZM72.7958 429.226C71.7055 426.06 70.6445 423.073 69.6121 420.262L64.9185 421.985C65.9382 424.762 66.9878 427.716 68.0682 430.854L72.7958 429.226ZM65.9405 410.696C64.6305 407.446 63.3697 404.503 62.1565 401.857L57.6114 403.941C58.787 406.505 60.0171 409.375 61.3031 412.565L65.9405 410.696ZM57.6648 393.018C55.3905 389.071 53.2016 386.144 51.0452 384.355L47.8528 388.203C49.3248 389.425 51.159 391.742 53.3327 395.514L57.6648 393.018ZM39.5318 386.683C38.0804 389.18 36.9541 392.681 36.0517 396.859L40.9391 397.915C41.8037 393.911 42.797 391.015 43.8549 389.195L39.5318 386.683ZM34.4288 406.795C34.0518 409.849 33.7304 413.156 33.4603 416.687L38.4457 417.069C38.7111 413.599 39.0254 410.371 39.3911 407.408L34.4288 406.795ZM32.8663 426.444C32.7166 429.621 32.5982 432.935 32.5091 436.369L37.5074 436.499C37.5957 433.096 37.7129 429.818 37.8608 426.679L32.8663 426.444ZM32.3343 446.35C32.3033 449.522 32.2931 452.776 32.3024 456.102L37.3024 456.088C37.2931 452.781 37.3033 449.548 37.3341 446.399L32.3343 446.35ZM32.3847 466.083C32.4277 469.287 32.4863 472.546 32.5596 475.851L37.5584 475.74C37.4854 472.449 37.427 469.205 37.3843 466.016L32.3847 466.083ZM32.8189 485.767C32.9157 489.003 33.0251 492.275 33.1461 495.576L38.1428 495.393C38.0221 492.103 37.9131 488.842 37.8166 485.617L32.8189 485.767ZM33.539 505.459C33.6782 508.713 33.8275 511.988 33.9862 515.279L38.9804 515.038C38.8221 511.756 38.6732 508.49 38.5345 505.245L33.539 505.459ZM34.4874 525.141C34.6616 528.409 34.8442 531.686 35.0345 534.965L40.0261 534.676C39.8363 531.404 39.6541 528.135 39.4803 524.875L34.4874 525.141ZM35.6277 544.809C35.8327 548.091 36.0446 551.369 36.2626 554.64L41.2516 554.307C41.034 551.044 40.8225 547.772 40.618 544.497L35.6277 544.809ZM36.9376 564.461C37.1708 567.759 37.4097 571.041 37.6533 574.302L42.6394 573.93C42.3963 570.675 42.1579 567.399 41.9251 564.108L36.9376 564.461ZM38.4047 584.104C38.6651 587.417 38.9299 590.702 39.198 593.951L44.1811 593.539C43.9135 590.297 43.6493 587.019 43.3893 583.712L38.4047 584.104ZM40.026 603.747C40.3137 607.073 40.6042 610.351 40.8965 613.575L45.876 613.124C45.5844 609.907 45.2945 606.635 45.0074 603.316L40.026 603.747ZM41.8089 623.404C42.1245 626.724 42.441 629.973 42.7571 633.14L47.7324 632.643C47.417 629.484 47.1013 626.243 46.7865 622.931L41.8089 623.404ZM43.7736 643.057C44.1269 646.411 44.478 649.65 44.8255 652.76L49.7945 652.205C49.4484 649.106 49.0983 645.878 48.7461 642.534L43.7736 643.057ZM45.9564 662.541C46.3807 666.079 46.7962 669.391 47.1994 672.448L52.1565 671.794C51.7562 668.759 51.3432 665.467 50.9208 661.946L45.9564 662.541ZM48.586 682.272C49.1976 686.27 49.77 689.519 50.2886 691.871L55.1713 690.795C54.6875 688.6 54.1343 685.475 53.5285 681.515L48.586 682.272ZM57.5555 690.236C57.6151 688.741 57.6473 686.936 57.651 684.811L52.651 684.802C52.6473 686.886 52.6158 688.624 52.5595 690.037L57.5555 690.236Z" fill="#6874E7"/>
<rect x="143" y="5" width="300" height="460" rx="35" fill="#81868D" stroke="black" stroke-width="10"/>
<rect x="252.5" y="25.5" width="81" height="10" rx="5" fill="black" stroke="black" stroke-width="3"/>
<circle cx="295" cy="434" r="19.5" fill="#0D0D0D" stroke="black" stroke-width="3"/>
<rect x="143" y="56" width="300" height="344" fill="#D5DAEB" stroke="black" stroke-width="10"/>
<rect x="246.438" y="133.831" width="88.5669" height="89.9637" rx="5" transform="rotate(7.38342 246.438 133.831)" fill="#6874E7" stroke="black" stroke-width="10"/>
<circle cx="305.811" cy="161.851" r="9.4" transform="rotate(7.73069 305.811 161.851)" fill="black"/>
<circle cx="264.732" cy="196.614" r="9.4" transform="rotate(7.73069 264.732 196.614)" fill="black"/>
<circle cx="270.141" cy="156.982" r="9.4" transform="rotate(7.73069 270.141 156.982)" fill="black"/>
<rect x="248.115" y="254.907" width="88.9974" height="88.9974" rx="5" transform="rotate(-55.348 248.115 254.907)" fill="#6874E7" stroke="black" stroke-width="10"/>
<ellipse cx="275.984" cy="250.441" rx="9.39849" ry="9.39848" transform="rotate(-1.11436 275.984 250.441)" fill="black"/>
<ellipse cx="310.456" cy="243.898" rx="9.39849" ry="9.39848" transform="rotate(-1.11436 310.456 243.898)" fill="black"/>
<ellipse cx="344.928" cy="237.355" rx="9.39849" ry="9.39848" transform="rotate(-1.11436 344.928 237.355)" fill="black"/>
</svg>
