<svg width="1694" height="1019" viewBox="0 0 1694 1019" fill="none" xmlns="http://www.w3.org/2000/svg">
<path fill-rule="evenodd" clip-rule="evenodd" d="M1629.59 124.197C1624.01 110.407 1613.2 96.1989 1594.93 81.4458L1598.07 77.5556C1616.8 92.6773 1628.24 107.532 1634.22 122.322C1640.21 137.144 1640.64 151.706 1637.67 166.078C1634.71 180.402 1628.38 194.548 1620.84 208.612C1616.47 216.769 1611.6 225.052 1606.73 233.349C1603.26 239.256 1599.79 245.169 1596.48 251.051C1580.4 279.679 1567.69 308.66 1573.55 339.732C1579.38 370.748 1603.89 404.614 1664.26 442.491L1664.49 442.633L1664.68 442.819C1678.28 456.082 1685.96 467.73 1689.01 478.398C1692.1 489.18 1690.41 498.721 1685.78 507.511C1681.2 516.2 1673.77 524.156 1665.4 531.957C1661.46 535.624 1657.28 539.298 1653.04 543.016L1652.19 543.762C1647.65 547.744 1643.06 551.787 1638.6 555.99C1620.72 572.835 1605.35 591.849 1604.53 618.076C1603.71 644.38 1617.5 678.687 1660.01 726.082L1661.15 727.352L1660.38 728.876C1633.52 782.163 1610.9 820.007 1592.18 846.25C1588.31 851.673 1584.6 856.608 1581.05 861.088C1589.08 869.334 1597.69 880.58 1606.83 895.456C1623.02 921.817 1641.02 959.784 1660.5 1013.18L1655.8 1014.89C1636.39 961.682 1618.53 924.051 1602.57 898.073C1593.69 883.627 1585.44 872.849 1577.89 865.009C1565.7 879.858 1555.46 889.146 1547.02 894.265C1541.24 897.775 1536.13 899.435 1531.7 899.415C1527.18 899.394 1523.55 897.615 1520.94 894.641C1515.89 888.897 1514.98 879.175 1516.89 870.118C1518.83 860.951 1523.84 851.551 1531.83 846.232C1540.01 840.781 1550.86 839.922 1563.59 847.095C1567.98 849.573 1572.61 853.012 1577.46 857.563C1580.85 853.276 1584.4 848.548 1588.11 843.346C1606.45 817.628 1628.69 780.494 1655.15 728.146C1613.21 681.056 1598.66 645.901 1599.53 617.92C1600.42 589.611 1617.08 569.398 1635.17 552.35C1639.7 548.08 1644.35 543.983 1648.89 540.003L1649.73 539.269C1653.98 535.539 1658.11 531.912 1661.99 528.299C1670.28 520.574 1677.19 513.091 1681.35 505.182C1685.47 497.375 1686.9 489.158 1684.21 479.776C1681.5 470.327 1674.54 459.463 1661.38 446.584C1600.69 408.463 1574.84 373.647 1568.63 340.657C1562.42 307.683 1576.01 277.299 1592.12 248.602C1595.54 242.514 1599.05 236.549 1602.52 230.642C1607.33 222.459 1612.07 214.386 1616.43 206.25C1623.89 192.339 1629.96 178.69 1632.78 165.066C1635.58 151.492 1635.15 137.956 1629.59 124.197ZM1574.32 861.472C1569.63 857.034 1565.22 853.758 1561.13 851.45C1549.79 845.056 1540.98 846.141 1534.6 850.394C1528.01 854.78 1523.54 862.845 1521.78 871.153C1520 879.572 1521.18 887.337 1524.69 891.341C1526.36 893.24 1528.63 894.4 1531.72 894.415C1534.9 894.43 1539.1 893.222 1544.43 889.991C1552.29 885.217 1562.21 876.27 1574.32 861.472ZM1526.39 137.419C1553.08 126.451 1574.59 106.548 1588.71 74.4929L1593.29 76.5089C1578.66 109.704 1556.22 130.567 1528.29 142.044C1500.44 153.487 1467.33 155.528 1431.38 151.489C1359.55 143.416 1275.53 110.932 1197.73 78.9674C1188.3 75.0915 1178.96 71.2234 1169.74 67.4058C1140.88 55.4548 1113.21 44.0004 1087.69 34.3616C1053.98 21.635 1024.2 12.1593 1000.5 8.88867C976.63 5.59474 959.904 8.72463 951.061 19.8718C942.154 31.1003 940.335 51.5339 949.292 85.3332C957.671 101.658 963.242 115.008 966.299 125.736C969.352 136.45 969.994 144.867 968.11 151.092C966.145 157.582 961.532 161.38 955.115 162.844C948.903 164.261 940.999 163.511 931.973 161.296C913.869 156.854 890.058 146.199 863.539 132.606C838.505 119.775 810.877 104.229 783.1 88.5987C781.401 87.6427 779.701 86.6863 778.002 85.7303C748.491 69.1296 718.977 52.614 692.274 39.2572C665.524 25.8771 641.798 15.7732 623.824 11.8784C614.821 9.92745 607.533 9.59842 602.124 10.9929C596.881 12.3446 593.399 15.2987 591.646 20.2682C589.821 25.4411 589.78 33.0623 592.298 43.7871C594.802 54.4484 599.767 67.8951 607.612 84.5469C623.942 115.158 624.188 138.376 611.146 155.635C598.346 172.575 573.269 182.951 541.136 189.513C487.836 200.399 413.128 201.137 336.644 201.892C320.705 202.05 304.689 202.208 288.774 202.459C242.54 203.188 197.096 204.694 156.629 209.2C116.124 213.71 80.8229 221.204 54.773 233.793C28.7808 246.354 12.3244 263.807 8.70668 288.204C5.05875 312.805 14.3419 345.139 41.6039 387.65L37.395 390.35C9.90705 347.486 -0.153466 313.867 3.76077 287.471C7.70507 260.87 25.7166 242.282 52.5974 229.291C79.4206 216.328 115.398 208.76 156.076 204.231C196.792 199.697 242.436 198.189 288.695 197.459C304.717 197.207 320.807 197.047 336.791 196.888C413.281 196.129 487.356 195.394 540.135 184.615C572.11 178.084 595.543 167.991 607.157 152.621C618.521 137.582 619.093 116.666 603.171 86.8468L603.142 86.7916L603.115 86.735C595.178 69.8919 590.048 56.0756 587.431 44.9303C584.825 33.8365 584.639 25.1018 586.931 18.6047C589.295 11.9043 594.192 7.87444 600.876 6.15123C607.394 4.47087 615.581 4.9761 624.883 6.99176C643.518 11.03 667.727 21.3885 694.511 34.7854C721.341 48.2056 750.96 64.7815 780.453 81.3725C782.143 82.3234 783.833 83.2743 785.522 84.2247C813.328 99.8707 840.876 115.372 865.819 128.157C892.322 141.741 915.679 152.149 933.164 156.44C941.932 158.592 948.927 159.127 954.003 157.969C958.874 156.858 961.938 154.222 963.324 149.643C964.79 144.799 964.456 137.51 961.491 127.106C958.544 116.768 953.094 103.665 944.722 87.3786L944.599 87.139L944.529 86.8786C935.454 52.7741 936.597 30.0601 947.144 16.7644C957.779 3.35876 977.058 0.606319 1001.19 3.9356C1025.48 7.28818 1055.7 16.9412 1089.45 29.6839C1115.06 39.3532 1142.83 50.8508 1171.71 62.8098C1180.91 66.6219 1190.23 70.481 1199.63 74.3426C1277.53 106.349 1360.91 138.538 1431.94 146.52C1467.43 150.509 1499.61 148.423 1526.39 137.419Z" fill="#EEF7EE"/>
<path d="M1594.93 81.4458L1592.98 79.8753L1591.41 81.8204L1593.36 83.3909L1594.93 81.4458ZM1629.59 124.197L1631.9 123.259L1631.9 123.259L1629.59 124.197ZM1598.07 77.5556L1599.64 75.6105L1597.7 74.0399L1596.13 75.9851L1598.07 77.5556ZM1634.22 122.322L1636.54 121.385L1636.54 121.385L1634.22 122.322ZM1637.67 166.078L1640.12 166.584L1640.12 166.584L1637.67 166.078ZM1620.84 208.612L1618.64 207.431L1620.84 208.612ZM1606.73 233.349L1604.57 232.083L1604.57 232.083L1606.73 233.349ZM1596.48 251.051L1594.3 249.826L1594.3 249.826L1596.48 251.051ZM1573.55 339.732L1571.09 340.195L1571.09 340.195L1573.55 339.732ZM1664.26 442.491L1662.93 444.609L1662.93 444.609L1664.26 442.491ZM1664.49 442.633L1666.23 440.843L1666.04 440.657L1665.81 440.515L1664.49 442.633ZM1664.68 442.819L1662.93 444.609L1662.93 444.609L1664.68 442.819ZM1689.01 478.398L1691.42 477.71L1691.42 477.71L1689.01 478.398ZM1685.78 507.511L1683.57 506.347L1683.57 506.347L1685.78 507.511ZM1665.4 531.957L1667.1 533.786L1667.1 533.786L1665.4 531.957ZM1653.04 543.016L1651.39 541.136L1651.39 541.136L1653.04 543.016ZM1652.19 543.762L1650.54 541.882L1650.54 541.883L1652.19 543.762ZM1638.6 555.99L1636.88 554.17L1636.88 554.17L1638.6 555.99ZM1604.53 618.076L1602.03 617.998L1602.03 617.998L1604.53 618.076ZM1660.01 726.082L1658.15 727.751L1658.15 727.751L1660.01 726.082ZM1661.15 727.352L1663.38 728.478L1664.15 726.954L1663.01 725.683L1661.15 727.352ZM1660.38 728.876L1658.15 727.751L1658.15 727.751L1660.38 728.876ZM1592.18 846.25L1594.21 847.702L1594.21 847.702L1592.18 846.25ZM1581.05 861.088L1579.09 859.535L1577.73 861.257L1579.26 862.831L1581.05 861.088ZM1606.83 895.456L1604.7 896.764L1604.7 896.764L1606.83 895.456ZM1660.5 1013.18L1661.35 1015.53L1663.7 1014.67L1662.85 1012.33L1660.5 1013.18ZM1655.8 1014.89L1653.45 1015.75L1654.31 1018.1L1656.66 1017.24L1655.8 1014.89ZM1602.57 898.073L1600.44 899.382L1600.44 899.382L1602.57 898.073ZM1577.89 865.009L1579.69 863.275L1577.74 861.251L1575.96 863.423L1577.89 865.009ZM1547.02 894.265L1545.72 892.128L1545.72 892.128L1547.02 894.265ZM1531.7 899.415L1531.69 901.915L1531.69 901.915L1531.7 899.415ZM1520.94 894.641L1519.06 896.291L1519.06 896.291L1520.94 894.641ZM1516.89 870.118L1519.34 870.636L1519.34 870.636L1516.89 870.118ZM1531.83 846.232L1533.21 848.313L1533.21 848.313L1531.83 846.232ZM1563.59 847.095L1562.36 849.273L1562.36 849.273L1563.59 847.095ZM1577.46 857.563L1575.76 859.387L1577.74 861.248L1579.43 859.112L1577.46 857.563ZM1588.11 843.346L1586.07 841.894L1586.07 841.894L1588.11 843.346ZM1655.15 728.146L1657.38 729.274L1658.15 727.755L1657.02 726.483L1655.15 728.146ZM1599.53 617.92L1602.03 617.998L1602.03 617.998L1599.53 617.92ZM1635.17 552.35L1636.88 554.17L1636.88 554.17L1635.17 552.35ZM1648.89 540.003L1647.24 538.124L1647.24 538.124L1648.89 540.003ZM1649.73 539.269L1648.08 537.389L1648.08 537.389L1649.73 539.269ZM1661.99 528.299L1660.29 526.47L1660.29 526.47L1661.99 528.299ZM1681.35 505.182L1679.14 504.018L1679.14 504.018L1681.35 505.182ZM1684.21 479.776L1681.8 480.465L1681.8 480.465L1684.21 479.776ZM1661.38 446.584L1663.12 444.797L1662.93 444.61L1662.71 444.467L1661.38 446.584ZM1568.63 340.657L1571.09 340.195L1571.09 340.195L1568.63 340.657ZM1592.12 248.602L1594.3 249.826L1592.12 248.602ZM1602.52 230.642L1604.68 231.908L1604.68 231.908L1602.52 230.642ZM1616.43 206.25L1618.64 207.431L1618.64 207.431L1616.43 206.25ZM1632.78 165.066L1635.23 165.572L1635.23 165.572L1632.78 165.066ZM1561.13 851.45L1562.36 849.273L1562.36 849.273L1561.13 851.45ZM1574.32 861.472L1576.26 863.055L1577.73 861.254L1576.04 859.655L1574.32 861.472ZM1534.6 850.394L1533.21 848.313L1533.21 848.313L1534.6 850.394ZM1521.78 871.153L1519.34 870.636L1519.34 870.636L1521.78 871.153ZM1524.69 891.341L1526.57 889.69L1526.57 889.69L1524.69 891.341ZM1531.72 894.415L1531.71 896.915L1531.71 896.915L1531.72 894.415ZM1544.43 889.991L1543.13 887.854L1543.13 887.854L1544.43 889.991ZM1588.71 74.4929L1589.72 72.2051L1587.43 71.1971L1586.42 73.4848L1588.71 74.4929ZM1526.39 137.419L1527.34 139.732L1527.34 139.732L1526.39 137.419ZM1593.29 76.5089L1595.58 77.5169L1596.58 75.2292L1594.3 74.2212L1593.29 76.5089ZM1528.29 142.044L1527.34 139.732L1527.34 139.732L1528.29 142.044ZM1431.38 151.489L1431.1 153.973L1431.1 153.973L1431.38 151.489ZM1197.73 78.9674L1196.78 81.2798L1196.78 81.2798L1197.73 78.9674ZM1169.74 67.4058L1168.78 69.7156L1168.78 69.7156L1169.74 67.4058ZM1087.69 34.3616L1086.8 36.7004L1086.8 36.7004L1087.69 34.3616ZM1000.5 8.88867L1000.84 6.41213L1000.84 6.41213L1000.5 8.88867ZM951.061 19.8718L953.02 21.4255L953.02 21.4255L951.061 19.8718ZM949.292 85.3332L946.876 85.9737L946.945 86.2346L947.068 86.4748L949.292 85.3332ZM966.299 125.736L968.703 125.05L968.703 125.05L966.299 125.736ZM968.11 151.092L970.502 151.816L970.502 151.816L968.11 151.092ZM955.115 162.844L955.671 165.281L955.671 165.281L955.115 162.844ZM931.973 161.296L931.377 163.724L931.377 163.724L931.973 161.296ZM863.539 132.606L864.679 130.382L864.679 130.382L863.539 132.606ZM783.1 88.5987L781.874 90.7774L781.874 90.7774L783.1 88.5987ZM778.002 85.7303L779.227 83.5514L779.227 83.5514L778.002 85.7303ZM692.274 39.2572L691.156 41.4931L691.156 41.4931L692.274 39.2572ZM623.824 11.8784L623.294 14.3216L623.294 14.3216L623.824 11.8784ZM602.124 10.9929L602.748 13.4138L602.748 13.4138L602.124 10.9929ZM591.646 20.2682L594.003 21.1L594.003 21.0999L591.646 20.2682ZM592.298 43.7871L589.865 44.3587L589.865 44.3587L592.298 43.7871ZM607.612 84.5469L605.35 85.6123L605.377 85.6686L605.406 85.7236L607.612 84.5469ZM611.146 155.635L609.152 154.128L609.152 154.128L611.146 155.635ZM541.136 189.513L541.636 191.963L541.636 191.963L541.136 189.513ZM336.644 201.892L336.668 204.392L336.668 204.392L336.644 201.892ZM288.774 202.459L288.813 204.958L288.813 204.958L288.774 202.459ZM156.629 209.2L156.906 211.685L156.906 211.685L156.629 209.2ZM54.773 233.793L53.6852 231.542L53.6852 231.542L54.773 233.793ZM8.70668 288.204L11.1796 288.571L11.1796 288.571L8.70668 288.204ZM41.6039 387.65L42.9534 389.755L45.0579 388.405L43.7083 386.301L41.6039 387.65ZM37.395 390.35L35.2905 391.699L36.6401 393.804L38.7445 392.454L37.395 390.35ZM3.76077 287.471L6.23373 287.837L6.23373 287.837L3.76077 287.471ZM52.5974 229.291L53.6852 231.542L53.6852 231.542L52.5974 229.291ZM156.076 204.231L155.799 201.746L155.799 201.746L156.076 204.231ZM288.695 197.459L288.655 194.96L288.655 194.96L288.695 197.459ZM336.791 196.888L336.766 194.389L336.766 194.389L336.791 196.888ZM540.135 184.615L540.635 187.064L540.635 187.064L540.135 184.615ZM607.157 152.621L609.152 154.128L609.152 154.128L607.157 152.621ZM603.171 86.8468L600.965 88.023L600.966 88.0243L603.171 86.8468ZM603.142 86.7916L600.881 87.8579L600.907 87.9136L600.936 87.9679L603.142 86.7916ZM603.115 86.735L600.854 87.8008L600.854 87.8014L603.115 86.735ZM587.431 44.9303L584.997 45.5019L584.997 45.5019L587.431 44.9303ZM586.931 18.6047L589.288 19.4365L589.288 19.4365L586.931 18.6047ZM600.876 6.15123L601.5 8.57208L601.5 8.57208L600.876 6.15123ZM624.883 6.99176L624.353 9.43506L624.353 9.43506L624.883 6.99176ZM694.511 34.7854L695.629 32.5495L695.629 32.5495L694.511 34.7854ZM780.453 81.3725L779.227 83.5514L779.227 83.5514L780.453 81.3725ZM785.522 84.2247L786.748 82.0459L786.748 82.0459L785.522 84.2247ZM865.819 128.157L864.679 130.382L864.679 130.382L865.819 128.157ZM933.164 156.44L932.568 158.868L932.568 158.868L933.164 156.44ZM954.003 157.969L954.559 160.407L954.559 160.407L954.003 157.969ZM963.324 149.643L965.717 150.368L965.717 150.368L963.324 149.643ZM961.491 127.106L963.895 126.421L963.895 126.421L961.491 127.106ZM944.722 87.3786L942.498 88.5215L942.498 88.5215L944.722 87.3786ZM944.599 87.139L942.183 87.7817L942.252 88.0422L942.375 88.2818L944.599 87.139ZM944.529 86.8786L946.945 86.2359L946.945 86.2357L944.529 86.8786ZM947.144 16.7644L945.186 15.2107L945.186 15.2107L947.144 16.7644ZM1001.19 3.9356L1001.53 1.45906L1001.53 1.45906L1001.19 3.9356ZM1089.45 29.6839L1090.34 27.3451L1090.34 27.3451L1089.45 29.6839ZM1171.71 62.8098L1172.66 60.5L1172.66 60.5L1171.71 62.8098ZM1199.63 74.3426L1198.68 76.655L1198.68 76.655L1199.63 74.3426ZM1431.94 146.52L1431.66 149.005L1431.66 149.005L1431.94 146.52ZM1593.36 83.3909C1611.4 97.9596 1621.89 111.844 1627.27 125.134L1631.9 123.259C1626.13 108.969 1615 94.4381 1596.5 79.5007L1593.36 83.3909ZM1596.13 75.9851L1592.98 79.8753L1596.88 83.0163L1600.02 79.1261L1596.13 75.9851ZM1636.54 121.385C1630.36 106.094 1618.6 90.9166 1599.64 75.6105L1596.5 79.5007C1615 94.4381 1626.13 108.969 1631.9 123.259L1636.54 121.385ZM1640.12 166.584C1643.17 151.812 1642.75 136.738 1636.54 121.385L1631.9 123.259C1637.68 137.55 1638.11 151.599 1635.23 165.572L1640.12 166.584ZM1623.04 209.793C1630.62 195.653 1637.09 181.257 1640.12 166.584L1635.23 165.572C1632.34 179.546 1626.13 193.444 1618.64 207.431L1623.04 209.793ZM1608.88 234.616C1613.75 226.326 1618.64 218.001 1623.04 209.793L1618.64 207.431C1614.29 215.538 1609.45 223.778 1604.57 232.083L1608.88 234.616ZM1598.66 252.275C1601.95 246.418 1605.41 240.526 1608.88 234.616L1604.57 232.083C1601.11 237.986 1597.62 243.921 1594.3 249.826L1598.66 252.275ZM1576 339.269C1570.33 309.149 1582.6 280.87 1598.66 252.275L1594.3 249.826C1578.21 278.489 1565.06 308.171 1571.09 340.195L1576 339.269ZM1665.59 440.374C1605.46 402.646 1581.65 369.278 1576 339.269L1571.09 340.195C1577.12 372.218 1602.32 406.582 1662.93 444.609L1665.59 440.374ZM1665.81 440.515L1665.59 440.374L1662.93 444.609L1663.16 444.751L1665.81 440.515ZM1666.42 441.029L1666.23 440.843L1662.74 444.423L1662.93 444.609L1666.42 441.029ZM1691.42 477.71C1688.19 466.454 1680.18 454.443 1666.42 441.029L1662.93 444.609C1676.38 457.72 1683.72 469.005 1686.61 479.087L1691.42 477.71ZM1687.99 508.676C1692.88 499.395 1694.71 489.192 1691.42 477.71L1686.61 479.087C1689.5 489.169 1687.94 498.048 1683.57 506.347L1687.99 508.676ZM1667.1 533.786C1675.52 525.946 1683.21 517.755 1687.99 508.676L1683.57 506.347C1679.2 514.646 1672.02 522.365 1663.69 530.128L1667.1 533.786ZM1654.69 544.895C1658.92 541.182 1663.14 537.483 1667.1 533.786L1663.69 530.128C1659.79 533.765 1655.63 537.414 1651.39 541.136L1654.69 544.895ZM1653.84 545.641L1654.69 544.895L1651.39 541.136L1650.54 541.882L1653.84 545.641ZM1640.31 557.809C1644.74 553.641 1649.3 549.625 1653.84 545.641L1650.54 541.883C1646 545.864 1641.38 549.933 1636.88 554.17L1640.31 557.809ZM1607.03 618.155C1607.82 592.969 1622.54 574.553 1640.31 557.809L1636.88 554.17C1618.9 571.116 1602.88 590.73 1602.03 617.998L1607.03 618.155ZM1661.87 724.412C1619.51 677.186 1606.23 643.493 1607.03 618.155L1602.03 617.998C1601.18 645.266 1615.49 680.188 1658.15 727.751L1661.87 724.412ZM1663.01 725.683L1661.87 724.412L1658.15 727.751L1659.29 729.022L1663.01 725.683ZM1662.61 730.002L1663.38 728.478L1658.92 726.227L1658.15 727.751L1662.61 730.002ZM1594.21 847.702C1613.03 821.321 1635.71 783.357 1662.61 730.002L1658.15 727.751C1631.32 780.97 1608.76 818.694 1590.14 844.798L1594.21 847.702ZM1583.01 862.64C1586.59 858.125 1590.32 853.155 1594.21 847.702L1590.14 844.798C1586.3 850.19 1582.61 855.092 1579.09 859.535L1583.01 862.64ZM1608.96 894.147C1599.75 879.162 1591.03 867.757 1582.84 859.344L1579.26 862.831C1587.12 870.911 1595.62 881.998 1604.7 896.764L1608.96 894.147ZM1662.85 1012.33C1643.34 958.835 1625.27 920.7 1608.96 894.147L1604.7 896.764C1620.78 922.934 1638.71 960.733 1658.15 1014.04L1662.85 1012.33ZM1656.66 1017.24L1661.35 1015.53L1659.64 1010.83L1654.94 1012.55L1656.66 1017.24ZM1600.44 899.382C1616.28 925.167 1634.08 962.631 1653.45 1015.75L1658.15 1014.04C1638.71 960.733 1620.78 922.934 1604.7 896.764L1600.44 899.382ZM1576.09 866.743C1583.48 874.42 1591.63 885.045 1600.44 899.382L1604.7 896.764C1595.75 882.21 1587.4 871.277 1579.69 863.275L1576.09 866.743ZM1548.32 896.402C1557.09 891.077 1567.54 881.549 1579.82 866.596L1575.96 863.423C1563.85 878.166 1553.82 887.216 1545.72 892.128L1548.32 896.402ZM1531.69 901.915C1536.74 901.938 1542.31 900.051 1548.32 896.402L1545.72 892.128C1540.17 895.498 1535.52 896.932 1531.71 896.915L1531.69 901.915ZM1519.06 896.291C1522.15 899.802 1526.46 901.89 1531.69 901.915L1531.71 896.915C1527.91 896.897 1524.96 895.428 1522.82 892.991L1519.06 896.291ZM1514.45 869.601C1512.46 878.975 1513.25 889.676 1519.06 896.291L1522.82 892.991C1518.54 888.118 1517.49 879.376 1519.34 870.636L1514.45 869.601ZM1530.44 844.152C1521.75 849.937 1516.48 860.005 1514.45 869.601L1519.34 870.636C1521.19 861.897 1525.93 853.165 1533.21 848.313L1530.44 844.152ZM1564.81 844.917C1551.4 837.355 1539.53 838.1 1530.44 844.152L1533.21 848.313C1540.5 843.462 1550.33 842.488 1562.36 849.273L1564.81 844.917ZM1579.17 855.739C1574.2 851.078 1569.41 847.511 1564.81 844.917L1562.36 849.273C1566.55 851.635 1571.02 854.946 1575.76 859.387L1579.17 855.739ZM1586.07 841.894C1582.38 847.067 1578.86 851.762 1575.5 856.013L1579.43 859.112C1582.84 854.79 1586.41 850.03 1590.14 844.798L1586.07 841.894ZM1652.92 727.018C1626.49 779.298 1604.32 816.313 1586.07 841.894L1590.14 844.798C1608.59 818.943 1630.89 781.69 1657.38 729.274L1652.92 727.018ZM1597.03 617.842C1596.13 646.78 1611.19 682.547 1653.28 729.809L1657.02 726.483C1615.23 679.565 1601.18 645.022 1602.03 617.998L1597.03 617.842ZM1633.46 550.531C1615.25 567.679 1597.95 588.492 1597.03 617.842L1602.03 617.998C1602.88 590.73 1618.9 571.116 1636.88 554.17L1633.46 550.531ZM1647.24 538.124C1642.71 542.102 1638.02 546.226 1633.46 550.531L1636.88 554.17C1641.38 549.933 1646 545.864 1650.54 541.883L1647.24 538.124ZM1648.08 537.389L1647.24 538.124L1650.54 541.883L1651.38 541.148L1648.08 537.389ZM1660.29 526.47C1656.44 530.053 1652.34 533.654 1648.08 537.389L1651.38 541.148C1655.62 537.423 1659.78 533.771 1663.69 530.128L1660.29 526.47ZM1679.14 504.018C1675.18 511.537 1668.53 518.784 1660.29 526.47L1663.69 530.128C1672.02 522.365 1679.2 514.646 1683.57 506.347L1679.14 504.018ZM1681.8 480.465C1684.29 489.147 1682.99 496.701 1679.14 504.018L1683.57 506.347C1687.94 498.048 1689.5 489.169 1686.61 479.087L1681.8 480.465ZM1659.63 448.372C1672.64 461.099 1679.26 471.6 1681.8 480.465L1686.61 479.087C1683.73 469.053 1676.45 457.828 1663.12 444.797L1659.63 448.372ZM1566.17 341.12C1572.58 375.115 1599.12 410.43 1660.05 448.701L1662.71 444.467C1602.26 406.496 1577.11 372.178 1571.09 340.195L1566.17 341.12ZM1589.94 247.378C1573.81 276.11 1559.79 307.194 1566.17 341.12L1571.09 340.195C1565.06 308.171 1578.21 278.489 1594.3 249.826L1589.94 247.378ZM1600.36 229.375C1596.9 235.279 1593.38 241.265 1589.94 247.378L1594.3 249.826C1597.71 243.763 1601.2 237.819 1604.68 231.908L1600.36 229.375ZM1614.23 205.069C1609.9 213.154 1605.18 221.184 1600.36 229.375L1604.68 231.908C1609.48 223.733 1614.25 215.618 1618.64 207.431L1614.23 205.069ZM1630.33 164.561C1627.59 177.834 1621.64 191.234 1614.23 205.069L1618.64 207.431C1626.13 193.444 1632.34 179.546 1635.23 165.572L1630.33 164.561ZM1627.27 125.134C1632.62 138.362 1633.05 151.386 1630.33 164.561L1635.23 165.572C1638.11 151.599 1637.68 137.55 1631.9 123.259L1627.27 125.134ZM1559.9 853.628C1563.78 855.817 1568.03 858.962 1572.61 863.289L1576.04 859.655C1571.23 855.106 1566.66 851.698 1562.36 849.273L1559.9 853.628ZM1535.98 852.474C1541.47 848.82 1549.26 847.625 1559.9 853.628L1562.36 849.273C1550.33 842.488 1540.5 843.462 1533.21 848.313L1535.98 852.474ZM1524.23 871.67C1525.9 863.792 1530.1 856.394 1535.98 852.474L1533.21 848.313C1525.93 853.165 1521.19 861.897 1519.34 870.636L1524.23 871.67ZM1526.57 889.69C1525.23 888.166 1524.19 885.734 1523.73 882.541C1523.26 879.377 1523.39 875.63 1524.23 871.67L1519.34 870.636C1518.4 875.094 1518.22 879.44 1518.78 883.264C1519.33 887.059 1520.64 890.511 1522.82 892.991L1526.57 889.69ZM1531.74 891.915C1529.36 891.904 1527.77 891.053 1526.57 889.69L1522.82 892.991C1524.96 895.428 1527.91 896.897 1531.71 896.915L1531.74 891.915ZM1543.13 887.854C1538.04 890.946 1534.29 891.927 1531.74 891.915L1531.71 896.915C1535.52 896.932 1540.17 895.498 1545.72 892.128L1543.13 887.854ZM1572.39 859.889C1560.36 874.583 1550.65 883.289 1543.13 887.854L1545.72 892.128C1553.93 887.146 1564.06 877.957 1576.26 863.055L1572.39 859.889ZM1586.42 73.4848C1572.55 104.971 1551.51 124.393 1525.44 135.107L1527.34 139.732C1554.65 128.509 1576.63 108.126 1591 75.5009L1586.42 73.4848ZM1594.3 74.2212L1589.72 72.2051L1587.7 76.7806L1592.28 78.7967L1594.3 74.2212ZM1529.24 144.357C1557.79 132.625 1580.7 111.281 1595.58 77.5169L1591 75.5009C1576.63 108.126 1554.65 128.509 1527.34 139.732L1529.24 144.357ZM1431.1 153.973C1467.27 158.038 1500.86 156.019 1529.24 144.357L1527.34 139.732C1500.03 150.955 1467.38 153.018 1431.66 149.005L1431.1 153.973ZM1196.78 81.2798C1274.53 113.224 1358.87 145.855 1431.1 153.973L1431.66 149.005C1360.23 140.977 1276.53 108.64 1198.68 76.655L1196.78 81.2798ZM1168.78 69.7156C1178 73.5329 1187.34 77.4024 1196.78 81.2798L1198.68 76.655C1189.25 72.7807 1179.91 68.9138 1170.69 65.096L1168.78 69.7156ZM1086.8 36.7004C1112.29 46.3226 1139.91 57.7609 1168.78 69.7156L1170.69 65.096C1141.84 53.1487 1114.14 41.6781 1088.57 32.0227L1086.8 36.7004ZM1000.16 11.3652C1023.57 14.5948 1053.12 23.982 1086.8 36.7004L1088.57 32.0227C1054.84 19.2881 1024.84 9.72374 1000.84 6.41213L1000.16 11.3652ZM953.02 21.4255C960.968 11.4067 976.419 8.08922 1000.16 11.3652L1000.84 6.41213C976.842 3.10026 958.841 6.04251 949.103 18.3181L953.02 21.4255ZM951.709 84.6928C942.772 50.971 944.919 31.637 953.02 21.4255L949.103 18.3181C939.389 30.5636 937.898 52.0967 946.876 85.9737L951.709 84.6928ZM968.703 125.05C965.583 114.103 959.933 100.59 951.516 84.1917L947.068 86.4748C955.409 102.726 960.9 115.913 963.895 126.421L968.703 125.05ZM970.502 151.816C972.595 144.901 971.801 135.92 968.703 125.05L963.895 126.421C966.904 136.98 967.392 144.833 965.717 150.368L970.502 151.816ZM955.671 165.281C962.859 163.642 968.248 159.264 970.502 151.816L965.717 150.368C964.042 155.901 960.205 159.119 954.559 160.407L955.671 165.281ZM931.377 163.724C940.532 165.971 948.89 166.828 955.671 165.281L954.559 160.407C948.915 161.694 941.465 161.052 932.568 158.868L931.377 163.724ZM862.398 134.831C888.927 148.429 912.964 159.206 931.377 163.724L932.568 158.868C914.774 154.502 891.19 143.97 864.679 130.382L862.398 134.831ZM781.874 90.7774C809.64 106.402 837.313 121.974 862.398 134.831L864.679 130.382C839.698 117.577 812.114 102.056 784.326 86.4199L781.874 90.7774ZM776.776 87.9092C778.475 88.8652 780.175 89.8214 781.874 90.7774L784.326 86.4199C782.627 85.4639 780.927 84.5075 779.227 83.5514L776.776 87.9092ZM691.156 41.4931C717.796 54.8182 747.256 71.3037 776.776 87.9092L779.227 83.5514C749.725 66.9556 720.159 50.4098 693.392 37.0213L691.156 41.4931ZM623.294 14.3216C640.937 18.1448 664.423 28.1214 691.156 41.4931L693.392 37.0213C666.626 23.6329 642.658 13.4016 624.353 9.43506L623.294 14.3216ZM602.748 13.4138C607.603 12.1622 614.44 12.4031 623.294 14.3216L624.353 9.43506C615.201 7.45182 607.464 7.03461 601.5 8.57208L602.748 13.4138ZM594.003 21.0999C595.452 16.9946 598.228 14.5793 602.748 13.4138L601.5 8.57208C595.535 10.1099 591.346 13.6028 589.288 19.4365L594.003 21.0999ZM594.732 43.2155C592.257 32.6751 592.412 25.6107 594.003 21.1L589.288 19.4365C587.23 25.2715 587.303 33.4495 589.865 44.3587L594.732 43.2155ZM609.873 83.4815C602.068 66.9123 597.181 53.641 594.732 43.2155L589.865 44.3587C592.424 55.2558 597.467 68.8779 605.35 85.6123L609.873 83.4815ZM613.141 157.143C627.026 138.767 626.365 114.39 609.817 83.3702L605.406 85.7236C621.518 115.927 621.35 137.984 609.152 154.128L613.141 157.143ZM541.636 191.963C573.848 185.384 599.748 174.867 613.141 157.143L609.152 154.128C596.945 170.283 572.689 180.517 540.635 187.064L541.636 191.963ZM336.668 204.392C413.056 203.638 488.046 202.908 541.636 191.963L540.635 187.064C487.626 197.891 413.2 198.636 336.619 199.392L336.668 204.392ZM288.813 204.958C304.72 204.708 320.728 204.55 336.668 204.392L336.619 199.392C320.682 199.55 304.658 199.708 288.734 199.959L288.813 204.958ZM156.906 211.685C197.248 207.193 242.593 205.687 288.813 204.958L288.734 199.959C242.488 200.688 196.944 202.196 156.353 206.715L156.906 211.685ZM55.8609 236.044C81.5241 223.641 116.486 216.185 156.906 211.685L156.353 206.715C115.761 211.235 80.1218 218.766 53.6852 231.542L55.8609 236.044ZM11.1796 288.571C14.6342 265.274 30.3137 248.39 55.8609 236.044L53.6852 231.542C27.2478 244.318 10.0147 262.339 6.23372 287.837L11.1796 288.571ZM43.7083 386.301C16.5593 343.966 7.66487 312.273 11.1796 288.571L6.23372 287.837C2.45263 313.336 12.1244 346.312 39.4994 389L43.7083 386.301ZM38.7445 392.454L42.9534 389.755L40.2543 385.546L36.0454 388.245L38.7445 392.454ZM1.28781 287.104C-2.7596 314.399 7.6897 348.659 35.2905 391.699L39.4994 389C12.1244 346.312 2.45267 313.336 6.23373 287.837L1.28781 287.104ZM51.5096 227.04C24.1853 240.245 5.39553 259.402 1.28781 287.104L6.23373 287.837C10.0146 262.339 27.2478 244.318 53.6852 231.542L51.5096 227.04ZM155.799 201.746C115.035 206.285 78.7195 213.89 51.5096 227.04L53.6852 231.542C80.1218 218.766 115.761 211.235 156.353 206.715L155.799 201.746ZM288.655 194.96C242.384 195.689 196.641 197.199 155.799 201.746L156.353 206.715C196.944 202.196 242.488 200.688 288.734 199.959L288.655 194.96ZM336.766 194.389C320.783 194.547 304.686 194.707 288.655 194.96L288.734 199.959C304.748 199.707 320.83 199.547 336.815 199.388L336.766 194.389ZM539.635 182.165C487.146 192.886 413.353 193.629 336.766 194.389L336.815 199.388C413.208 198.63 487.566 197.903 540.635 187.064L539.635 182.165ZM605.162 151.114C594.142 165.699 571.53 175.651 539.635 182.165L540.635 187.064C572.689 180.517 596.945 170.283 609.152 154.128L605.162 151.114ZM600.966 88.0243C616.668 117.432 615.685 137.188 605.162 151.114L609.152 154.128C621.358 137.975 621.518 115.901 605.377 85.6693L600.966 88.0243ZM600.936 87.9679L600.965 88.023L605.377 85.6705L605.348 85.6153L600.936 87.9679ZM600.854 87.8014L600.881 87.8579L605.403 85.7252L605.377 85.6687L600.854 87.8014ZM584.997 45.5019C587.67 56.8832 592.877 70.8751 600.854 87.8008L605.377 85.6693C597.478 68.9088 592.427 55.2681 589.865 44.3587L584.997 45.5019ZM584.573 17.773C582.047 24.9321 582.348 34.2236 584.997 45.5019L589.865 44.3587C587.303 33.4495 587.23 25.2715 589.288 19.4365L584.573 17.773ZM600.252 3.73039C592.848 5.63908 587.243 10.2061 584.573 17.773L589.288 19.4365C591.346 13.6025 595.536 10.1098 601.5 8.57208L600.252 3.73039ZM625.412 4.54847C615.96 2.50038 607.324 1.90712 600.252 3.73039L601.5 8.57208C607.464 7.03462 615.201 7.45182 624.353 9.43506L625.412 4.54847ZM695.629 32.5495C668.828 19.1441 644.379 8.65842 625.412 4.54847L624.353 9.43506C642.658 13.4016 666.626 23.6328 693.392 37.0213L695.629 32.5495ZM781.679 79.1936C752.194 62.6075 722.523 46.0013 695.629 32.5495L693.392 37.0213C720.159 50.4098 749.725 66.9556 779.227 83.5514L781.679 79.1936ZM786.748 82.0459C785.059 81.0956 783.369 80.1445 781.679 79.1936L779.227 83.5514C780.918 84.5022 782.607 85.453 784.296 86.4035L786.748 82.0459ZM866.96 125.932C842.068 113.174 814.565 97.6981 786.748 82.0459L784.296 86.4034C812.091 102.043 839.684 117.57 864.679 130.382L866.96 125.932ZM933.76 154.012C916.585 149.797 893.454 139.512 866.96 125.932L864.679 130.382C891.19 143.97 914.774 154.502 932.568 158.868L933.76 154.012ZM953.447 155.532C948.94 156.56 942.399 156.132 933.76 154.012L932.568 158.868C941.465 161.052 948.915 161.694 954.559 160.407L953.447 155.532ZM960.931 148.919C960.353 150.83 959.467 152.214 958.314 153.235C957.149 154.265 955.576 155.046 953.447 155.532L954.559 160.407C957.302 159.781 959.696 158.688 961.627 156.979C963.57 155.259 964.909 153.035 965.717 150.368L960.931 148.919ZM959.086 127.791C962.007 138.041 962.189 144.765 960.931 148.919L965.717 150.368C967.392 144.833 966.904 136.98 963.895 126.421L959.086 127.791ZM942.498 88.5215C950.832 104.734 956.203 117.674 959.086 127.791L963.895 126.421C960.885 115.862 955.355 102.596 946.945 86.2357L942.498 88.5215ZM942.375 88.2818L942.498 88.5215L946.945 86.2358L946.822 85.9962L942.375 88.2818ZM942.113 87.5213L942.183 87.7817L947.015 86.4963L946.945 86.2359L942.113 87.5213ZM945.186 15.2107C933.83 29.5258 933.018 53.3423 942.114 87.5215L946.945 86.2357C937.889 52.2059 939.364 30.5944 949.103 18.3181L945.186 15.2107ZM1001.53 1.45906C977.273 -1.88765 956.716 0.675099 945.186 15.2107L949.103 18.3181C958.841 6.04243 976.842 3.10029 1000.84 6.41213L1001.53 1.45906ZM1090.34 27.3451C1056.56 14.5942 1026.12 4.85262 1001.53 1.45906L1000.84 6.41213C1024.84 9.72374 1054.84 19.2881 1088.57 32.0227L1090.34 27.3451ZM1172.66 60.5C1143.79 48.5448 1115.99 37.031 1090.34 27.3451L1088.57 32.0227C1114.13 41.6755 1141.86 53.1569 1170.75 65.1196L1172.66 60.5ZM1200.58 72.0302C1191.19 68.1701 1181.87 64.3124 1172.66 60.5L1170.75 65.1196C1179.96 68.9315 1189.28 72.7919 1198.68 76.655L1200.58 72.0302ZM1432.22 144.036C1361.6 136.099 1278.53 104.057 1200.58 72.0302L1198.68 76.655C1276.53 108.64 1360.23 140.977 1431.66 149.005L1432.22 144.036ZM1525.44 135.107C1499.19 145.891 1467.48 147.999 1432.22 144.036L1431.66 149.005C1467.38 153.018 1500.03 150.955 1527.34 139.732L1525.44 135.107Z" fill="#6874E7"/>
</svg>
