<svg width="331" height="704" viewBox="0 0 331 704" fill="none" xmlns="http://www.w3.org/2000/svg">
<path d="M233 0L321 122.5L166.316 114.75L233 0Z" fill="#423E3B"/>
<path d="M167 113L233.684 227.75L95.5 242L167 113Z" fill="#423E3B"/>
<path d="M233 162L331 286L166.316 276.75L233 162Z" fill="#423E3B"/>
<path d="M167 276L233.684 390.75L92 418L167 276Z" fill="#423E3B"/>
<path d="M233 362L313.5 491L166.316 476.75L233 362Z" fill="#423E3B"/>
<path d="M162 448L243 586.5L82 570L162 448Z" fill="#423E3B"/>
<path d="M107 565L217.5 703.5L53 691L107 565Z" fill="#423E3B"/>
<path d="M233 534L318.5 666L166.316 648.75L233 534Z" fill="#423E3B"/>
<path d="M100 0L187.5 124L33.3161 114.75L100 0Z" fill="#423E3B"/>
<path d="M90 200L165 337.5L23.3161 314.75L90 200Z" fill="#423E3B"/>
<path d="M67 362L141.5 516L0.31604 476.75L67 362Z" fill="#423E3B"/>
<path d="M173 103.5L187.5 124L161.5 122.5L173 103.5Z" fill="#6874E7"/>
<path d="M214 194.5C214.5 195 233.783 227.5 233.783 227.5L192.5 232C192.5 232 213.5 194 214 194.5Z" fill="#6874E7"/>
<path d="M149.5 309C150 309.5 165 337.5 165 337.5L137 333C137 333 149 308.5 149.5 309Z" fill="#6874E7"/>
<path d="M225 376C225.5 376.5 233.5 390.5 233.5 390.5L214 394.5C214 394.5 224.5 375.5 225 376Z" fill="#6874E7"/>
<path d="M131.218 494.93C131.705 495.335 141.5 516 141.5 516L121 510.5C121 510.5 130.731 494.525 131.218 494.93Z" fill="#6874E7"/>
<path d="M169.5 643C169.88 643.135 174.5 649.5 174.5 649.5L166 649C166 649 169.12 642.865 169.5 643Z" fill="#6874E7"/>
<path d="M222.5 552C222.987 552.405 243 586.5 243 586.5L205 582.5C205 582.5 222.013 551.595 222.5 552Z" fill="#6874E7"/>
<path d="M172.5 466L179.5 478L166.5 477L172.5 466Z" fill="#6874E7"/>
<path d="M104 226.5L112 240.5L95.5 242L104 226.5Z" fill="#6874E7"/>
</svg>
